<svg version="1.1" class="can-badge can-alert has-solid " viewBox="0 0 36 36" preserveAspectRatio="xMidYMid meet"
     xmlns="http://www.w3.org/2000/svg" focusable="false" role="img"
     width="20" height="20" fill="currentColor">
    <path class="clr-i-outline clr-i-outline-path-1"
          d="M35.32,13.74A1.71,1.71,0,0,0,33.87,13H11.17a2.59,2.59,0,0,0-2.25,1.52,1,1,0,0,0,0,.14L6,25V7h6.49l2.61,3.59a1,1,0,0,0,.81.41H32a2,2,0,0,0-2-2H16.42L14.11,5.82A2,2,0,0,0,12.49,5H6A2,2,0,0,0,4,7V29.69A1.37,1.37,0,0,0,5.41,31H30.34a1,1,0,0,0,1-.72l4.19-15.1A1.64,1.64,0,0,0,35.32,13.74ZM29.55,29H6.9l3.88-13.81a.66.66,0,0,1,.38-.24H33.49Z"/>
    <path class="clr-i-outline--badged clr-i-outline-path-1--badged"
          d="M35.32,13.74A1.71,1.71,0,0,0,33.87,13H11.17a2.59,2.59,0,0,0-2.25,1.52,1,1,0,0,0,0,.14L6,25V7h6.49l2.61,3.59a1,1,0,0,0,.81.41h8.52a7.49,7.49,0,0,1-1.29-2H16.42L14.11,5.82A2,2,0,0,0,12.49,5H6A2,2,0,0,0,4,7V29.69A1.37,1.37,0,0,0,5.41,31H30.34a1,1,0,0,0,1-.72l4.19-15.1A1.64,1.64,0,0,0,35.32,13.74ZM29.55,29H6.9l3.88-13.81a.66.66,0,0,1,.38-.24H33.49Z"
          style="display:none"/>
    <path class="clr-i-outline--alerted clr-i-outline-path-1--alerted"
          d="M33.68,15.4h-.3L29.55,29H6.9l3.88-13.81a.66.66,0,0,1,.38-.24h9.42A3.67,3.67,0,0,1,19,13.56a3.63,3.63,0,0,1-.26-.56H11.17a2.59,2.59,0,0,0-2.25,1.52,1,1,0,0,0,0,.14L6,25V7h6.49l2.61,3.59a1,1,0,0,0,.81.41h2.73A3.66,3.66,0,0,1,19,9.89L19.56,9H16.42L14.11,5.82A2,2,0,0,0,12.49,5H6A2,2,0,0,0,4,7V29.69A1.37,1.37,0,0,0,5.41,31H30.34a1,1,0,0,0,1-.72l4.19-15.1a1.68,1.68,0,0,0,.07-.32A3.67,3.67,0,0,1,33.68,15.4Z"
          style="display:none"/>
    <path class="clr-i-outline--alerted clr-i-outline-path-2--alerted clr-i-alert"
          d="M26.85,1.14,21.13,11A1.28,1.28,0,0,0,22.23,13H33.68A1.28,1.28,0,0,0,34.78,11L29.06,1.14A1.28,1.28,0,0,0,26.85,1.14Z"
          style="display:none"/>
    <path class="clr-i-solid clr-i-solid-path-1"
          d="M35.32,13.74A1.71,1.71,0,0,0,33.87,13H11.17a2.59,2.59,0,0,0-2.25,1.52,1,1,0,0,0,0,.14L6,25V7h6.49l2.61,3.59a1,1,0,0,0,.81.41H32a2,2,0,0,0-2-2H16.42L14.11,5.82A2,2,0,0,0,12.49,5H6A2,2,0,0,0,4,7V29.69A1.37,1.37,0,0,0,5.41,31H30.34a1,1,0,0,0,1-.72l4.19-15.1A1.64,1.64,0,0,0,35.32,13.74Z"
          style="display:none"/>
    <path class="clr-i-solid--alerted clr-i-solid-path-1--alerted"
          d="M33.68,15.4H22.23A3.69,3.69,0,0,1,19,13.56a3.63,3.63,0,0,1-.26-.56H11.17a2.59,2.59,0,0,0-2.25,1.52,1,1,0,0,0,0,.14L6,25V7h6.49l2.61,3.59a1,1,0,0,0,.81.41h2.73A3.66,3.66,0,0,1,19,9.89L19.56,9H16.42L14.11,5.82A2,2,0,0,0,12.49,5H6A2,2,0,0,0,4,7V29.69A1.37,1.37,0,0,0,5.41,31H30.34a1,1,0,0,0,1-.72l4.19-15.1a1.68,1.68,0,0,0,.07-.32A3.67,3.67,0,0,1,33.68,15.4Z"
          style="display:none"/>
    <path class="clr-i-solid--alerted clr-i-solid-path-2--alerted clr-i-alert"
          d="M26.85,1.14,21.13,11A1.28,1.28,0,0,0,22.23,13H33.68A1.28,1.28,0,0,0,34.78,11L29.06,1.14A1.28,1.28,0,0,0,26.85,1.14Z"
          style="display:none"/>
    <path class="clr-i-solid--badged clr-i-solid-path-1--badged"
          d="M35.32,13.74A1.71,1.71,0,0,0,33.87,13H11.17a2.59,2.59,0,0,0-2.25,1.52,1,1,0,0,0,0,.14L6,25V7h6.49l2.61,3.59a1,1,0,0,0,.81.41h8.52a7.49,7.49,0,0,1-1.31-2H16.42L14.11,5.82A2,2,0,0,0,12.49,5H6A2,2,0,0,0,4,7V29.69A1.37,1.37,0,0,0,5.41,31H30.34a1,1,0,0,0,1-.72l4.19-15.1A1.64,1.64,0,0,0,35.32,13.74Z"
          style="display:none"/>
    <circle class="clr-i-outline--badged clr-i-outline-path-2--badged clr-i-badge" cx="30" cy="6" r="5"
            style="display:none"/>
    <circle class="clr-i-solid--badged clr-i-solid-path-2--badged clr-i-badge" cx="30" cy="6" r="5"
            style="display:none"/>
</svg>